<svg width="19" height="23" viewBox="0 0 19 23" fill="none" xmlns="http://www.w3.org/2000/svg">
<path d="M18.0073 17.3886C17.6884 18.1252 17.311 18.8033 16.8737 19.4266C16.2777 20.2765 15.7897 20.8647 15.4136 21.1913C14.8305 21.7275 14.2059 22.0021 13.5369 22.0177C13.0567 22.0177 12.4776 21.8811 11.8035 21.6039C11.1271 21.328 10.5056 21.1913 9.93727 21.1913C9.34123 21.1913 8.70198 21.328 8.01823 21.6039C7.33343 21.8811 6.78177 22.0255 6.35998 22.0399C5.71852 22.0672 5.07914 21.7848 4.44094 21.1913C4.0336 20.8361 3.5241 20.227 2.91374 19.3642C2.25888 18.4428 1.72049 17.3743 1.2987 16.1562C0.846988 14.8405 0.620544 13.5664 0.620544 12.333C0.620544 10.92 0.925853 9.70141 1.53738 8.6802C2.01799 7.85993 2.65737 7.21287 3.4576 6.73786C4.25783 6.26285 5.12248 6.02079 6.05363 6.00531C6.56313 6.00531 7.23127 6.1629 8.06156 6.47264C8.88951 6.78341 9.42114 6.94101 9.65422 6.94101C9.82847 6.94101 10.4191 6.75673 11.4202 6.38935C12.367 6.04864 13.166 5.90757 13.8207 5.96314C15.5945 6.10629 16.9271 6.80554 17.8134 8.06529C16.2269 9.02651 15.4422 10.3728 15.4578 12.0999C15.4721 13.4451 15.9602 14.5646 16.9193 15.4535C17.354 15.866 17.8394 16.1849 18.3795 16.4113C18.2623 16.751 18.1387 17.0763 18.0073 17.3886ZM13.9391 1.38013C13.9391 2.43454 13.5539 3.41903 12.786 4.33027C11.8594 5.41356 10.7387 6.03953 9.5233 5.94076C9.50781 5.81426 9.49883 5.68113 9.49883 5.54123C9.49883 4.529 9.93948 3.44571 10.722 2.55998C11.1127 2.11152 11.6096 1.73863 12.2121 1.44116C12.8134 1.14814 13.3821 0.986094 13.917 0.958344C13.9326 1.0993 13.9391 1.24027 13.9391 1.38012V1.38013Z" fill="white"/>
</svg>
