<svg width="23" height="23" viewBox="0 0 23 23" fill="none" xmlns="http://www.w3.org/2000/svg">
<path fill-rule="evenodd" clip-rule="evenodd" d="M22.06 11.75C22.06 10.97 21.99 10.22 21.86 9.5H11.5V13.755H17.42C17.165 15.13 16.39 16.295 15.225 17.075V19.835H18.78C20.86 17.92 22.06 15.1 22.06 11.75Z" fill="#4285F4"/>
<path fill-rule="evenodd" clip-rule="evenodd" d="M11.5 22.4998C14.47 22.4998 16.96 21.5148 18.78 19.8348L15.225 17.0748C14.24 17.7348 12.98 18.1248 11.5 18.1248C8.63497 18.1248 6.20997 16.1898 5.34497 13.5898H1.66997V16.4398C3.47997 20.0348 7.19997 22.4998 11.5 22.4998Z" fill="#34A853"/>
<path fill-rule="evenodd" clip-rule="evenodd" d="M5.345 13.5901C5.125 12.9301 5 12.2251 5 11.5001C5 10.7751 5.125 10.0701 5.345 9.41006V6.56006H1.67C0.925 8.04506 0.5 9.72506 0.5 11.5001C0.5 13.2751 0.925 14.9551 1.67 16.4401L5.345 13.5901Z" fill="#FBBC05"/>
<path fill-rule="evenodd" clip-rule="evenodd" d="M11.5 4.875C13.115 4.875 14.565 5.43 15.705 6.52L18.86 3.365C16.955 1.59 14.465 0.5 11.5 0.5C7.19997 0.5 3.47997 2.965 1.66997 6.56L5.34497 9.41C6.20997 6.81 8.63497 4.875 11.5 4.875Z" fill="#EA4335"/>
</svg>
